<svg width="108" height="24" viewBox="0 0 108 24" fill="none" xmlns="http://www.w3.org/2000/svg">
<g clip-path="url(#clip0_347_22)">
<path d="M8.768 12.984V2.936C8.768 1.656 9.536 1.208 11.84 1.08V0.695999H0.768V1.112C3.424 1.208 4.096 1.72 4.096 2.936V20.728C4.096 21.976 3.424 22.456 0.768 22.552V23H11.776V22.552C9.536 22.456 8.768 22.04 8.768 20.728V13.912L10.496 12.088L15.776 19.8C17.056 21.656 16.8 22.36 14.496 22.552V23H25.152V22.552C23.04 22.296 22.432 21.432 20.672 18.936L13.6 8.824L15.84 6.488C19.104 3.096 21.12 1.656 23.872 1.112V0.695999H15.104V1.112C18.24 1.464 17.856 3.288 15.936 5.336L8.768 12.984Z" fill="white"/>
<path d="M23.216 23H34.704V22.552C31.92 22.456 31.28 21.944 31.28 20.728V2.968C31.28 1.752 31.92 1.208 34.704 1.112V0.695999H23.216V1.112C26 1.208 26.64 1.752 26.64 2.968V20.728C26.64 21.944 26 22.456 23.216 22.552V23Z" fill="white"/>
<path d="M53.128 23.352H54.664V6.104C54.664 2.936 55.528 1.56 58.536 1.112V0.695999H49.448V1.112C52.68 1.496 53.864 2.936 53.864 6.104V16.728H53.832L41.512 0.695999H33.96V1.112C36.712 1.24 37.896 2.872 37.896 4.824V17.56C37.896 20.792 36.968 22.168 33.96 22.552V23H42.984V22.552C39.72 22.2 38.696 20.792 38.696 17.56V4.728H38.728L53.128 23.352Z" fill="white"/>
<path d="M68.896 23.544C72.288 23.544 75.392 22.552 77.44 21.336V15.032C77.44 13.592 77.984 13.208 79.872 13.08V12.664H69.504V13.08C72.224 13.176 72.96 13.88 72.96 15.064V21.816C72.064 22.584 70.752 22.936 69.184 22.936C65.632 22.936 62.496 19.576 62.496 11.832C62.496 4.088 65.536 0.759998 68.928 0.759998C72.256 0.759998 74.496 3.32 76.576 7.768H77.024V-0.00800133H76.672L75.104 1.592C73.632 0.759998 71.744 0.151999 69.184 0.151999C62.72 0.151999 57.344 4.824 57.344 11.896C57.344 19.352 62.432 23.544 68.896 23.544Z" fill="white"/>
</g>
<defs>
<clipPath id="clip0_347_22">
<rect width="108" height="24" fill="white"/>
</clipPath>
</defs>
</svg>
