<svg width="108" height="24" viewBox="0 0 108 24" fill="none" xmlns="http://www.w3.org/2000/svg">
<g clip-path="url(#clip0_1_71)">
<path d="M0.96 23H9.856V22.552C6.656 22.136 5.696 20.792 5.696 17.56V2.872H5.888L14.208 23.032H15.36L22.816 2.872H22.976V20.728C22.976 22.008 22.176 22.456 19.904 22.552V23H30.944V22.552C28.256 22.456 27.616 21.944 27.616 20.728V2.968C27.616 1.752 28.256 1.208 30.944 1.112V0.695999H22.784L16.736 17.144H16.576L9.984 0.695999H0.96V1.112C3.712 1.176 4.896 2.648 4.896 4.568V17.56C4.896 20.792 3.968 22.168 0.96 22.552V23Z" fill="white"/>
<path d="M34.6 23H46.696V22.552C43.848 22.488 42.984 21.944 42.984 20.728V1.272H43.752C46.216 1.272 48.136 3.736 50.376 8.088L50.856 8.024L50.696 0.695999H30.568L30.376 8.024L30.856 8.088C33.128 3.64 35.08 1.272 37.512 1.272H38.312V20.728C38.312 21.944 37.416 22.488 34.6 22.552V23Z" fill="white"/>
<path d="M58.992 23H70C77.136 23 79.344 19.928 79.344 16.728C79.344 13.656 76.848 11.448 71.728 11.256V11.16C76.656 10.68 78.512 8.408 78.512 6.04C78.512 3.416 76.688 0.695999 69.712 0.695999H58.992V1.112C61.648 1.208 62.32 1.752 62.32 2.968V20.728C62.32 21.944 61.648 22.456 58.992 22.552V23ZM66.992 10.968V1.272H69.2C72.976 1.272 73.744 3.384 73.744 6.136C73.744 9.112 72.816 10.968 69.296 10.968H66.992ZM66.992 22.392V11.544H69.36C73.296 11.544 74.512 13.912 74.512 16.728C74.512 20.28 73.776 22.392 69.68 22.392H66.992Z" fill="white"/>
<path d="M81.216 23H92.704V22.552C89.92 22.456 89.28 21.944 89.28 20.728V2.968C89.28 1.752 89.92 1.208 92.704 1.112V0.695999H81.216V1.112C84 1.208 84.64 1.752 84.64 2.968V20.728C84.64 21.944 84 22.456 81.216 22.552V23Z" fill="white"/>
</g>
<defs>
<clipPath id="clip0_1_71">
<rect width="108" height="24" fill="white"/>
</clipPath>
</defs>
</svg>
